<svg xmlns="http://www.w3.org/2000/svg" width="1600" height="1000" viewBox="0 0 1600 1000">
<style>
  text { font-family: 'Segoe UI', system-ui, -apple-system, 'Helvetica Neue', Arial, sans-serif; }
  .b { font-weight: 700; }
  .sb { font-weight: 600; }
  .m { text-anchor: middle; }
  .e { text-anchor: end; }

  @media (prefers-reduced-motion: no-preference) {
    .match { animation: glow 4s ease-in-out infinite; }
    .hit { animation: hit 4s ease-in-out infinite; }
  }
  @keyframes glow { 0%, 100% { fill: #fff1e8; } 50% { fill: #ffe6d6; } }
  @keyframes hit { 0%, 100% { stroke-opacity: 1; } 50% { stroke-opacity: 0.45; } }

</style>
<rect width="1600" height="1000" fill="#faf6f1"/><rect width="1600" height="80" fill="#fff"/><rect y="79" width="1600" height="1" fill="#eee4da"/><path d="M48 40a16 16 0 1 1 16 16h-10" fill="none" stroke="#e8541c" stroke-width="5" stroke-linecap="round"/><path d="M60 48l-7 8 7 8" fill="none" stroke="#e8541c" stroke-width="5" stroke-linecap="round" stroke-linejoin="round"/><text x="92" y="50" font-size="27" class="b" fill="#231a14" letter-spacing="-0.6">backtrack</text><rect x="300" y="18" width="620" height="44" rx="22" fill="#f4ede6"/><circle cx="328" cy="38" r="8" fill="none" stroke="#9a8b80" stroke-width="2.2"/><path d="M334 44l6 6" stroke="#9a8b80" stroke-width="2.2" stroke-linecap="round"/><text x="352" y="46" font-size="16" fill="#9a8b80">Search lost items: bottle, ID card, keys…</text><text x="1140" y="46" font-size="16" fill="#5e5047">Found items</text><text x="1258" y="46" font-size="16" fill="#5e5047">My reports</text><rect x="1372" y="18" width="180" height="44" rx="12" fill="#e8541c"/><text x="1462" y="46" font-size="16" class="sb m" fill="#fff">Report lost item</text><rect class="match" x="48.5" y="112.5" width="1503" height="99" rx="14" fill="#fff1e8" stroke="#f5c3a4"/><circle cx="100" cy="162" r="24" fill="#e8541c"/><path d="M89 162l7 7 14-15" fill="none" stroke="#fff" stroke-width="4" stroke-linecap="round" stroke-linejoin="round"/><text x="142" y="156" font-size="21" class="b" fill="#231a14">Possible match for your blue steel bottle</text><text x="142" y="186" font-size="16" fill="#76675c">Handed in at Library, 2nd floor · Tue 14:20 · matched on place and time</text><rect x="1340" y="138" width="180" height="48" rx="12" fill="#231a14"/><text x="1430" y="168" font-size="16" class="sb m" fill="#fff">Claim at desk</text><text x="48" y="272" font-size="14" class="b" fill="#76675c" letter-spacing="1.2">CATEGORIES</text><rect x="40" y="290" width="288" height="38" rx="9" fill="#f6e3d6"/><text x="56" y="315" font-size="16" fill="#231a14" class="sb">All items</text><text x="312" y="315" font-size="15" fill="#76675c" class="e">42</text><text x="56" y="359" font-size="16" fill="#4d4038">Bottles</text><text x="312" y="359" font-size="15" fill="#76675c" class="e">9</text><text x="56" y="403" font-size="16" fill="#4d4038">ID cards</text><text x="312" y="403" font-size="15" fill="#76675c" class="e">7</text><text x="56" y="447" font-size="16" fill="#4d4038">Keys</text><text x="312" y="447" font-size="15" fill="#76675c" class="e">6</text><text x="56" y="491" font-size="16" fill="#4d4038">Phones &amp; earbuds</text><text x="312" y="491" font-size="15" fill="#76675c" class="e">5</text><text x="56" y="535" font-size="16" fill="#4d4038">Bags</text><text x="312" y="535" font-size="15" fill="#76675c" class="e">4</text><text x="56" y="579" font-size="16" fill="#4d4038">Stationery</text><text x="312" y="579" font-size="15" fill="#76675c" class="e">8</text><text x="56" y="623" font-size="16" fill="#4d4038">Other</text><text x="312" y="623" font-size="15" fill="#76675c" class="e">3</text><text x="48" y="688" font-size="14" class="b" fill="#76675c" letter-spacing="1.2">FOUND AT</text><rect x="48.5" y="714.5" width="21" height="21" rx="5" fill="#e8541c" stroke="#e8541c"/><path d="M53 725l4 4 8-8.5" fill="none" stroke="#fff" stroke-width="2.6" stroke-linecap="round" stroke-linejoin="round"/><text x="84" y="731" font-size="16" fill="#4d4038">Library</text><rect x="48.5" y="762.5" width="21" height="21" rx="5" fill="#e8541c" stroke="#e8541c"/><path d="M53 773l4 4 8-8.5" fill="none" stroke="#fff" stroke-width="2.6" stroke-linecap="round" stroke-linejoin="round"/><text x="84" y="779" font-size="16" fill="#4d4038">Main block</text><rect x="48.5" y="810.5" width="21" height="21" rx="5" fill="#fff" stroke="#d5c8bd"/><text x="84" y="827" font-size="16" fill="#4d4038">Canteen</text><rect x="48.5" y="858.5" width="21" height="21" rx="5" fill="#fff" stroke="#d5c8bd"/><text x="84" y="875" font-size="16" fill="#4d4038">Sports ground</text><rect x="48.5" y="906.5" width="21" height="21" rx="5" fill="#fff" stroke="#d5c8bd"/><text x="84" y="923" font-size="16" fill="#4d4038">Hostel gate</text><text x="360" y="272" font-size="24" class="b" fill="#231a14">Handed in this week</text><text x="1552" y="272" font-size="15" fill="#76675c" class="e">Newest first</text><rect x="360.5" y="300.5" width="375" height="319" rx="14" fill="#fff" stroke="#e8541c" stroke-width="3" class="hit"/><rect x="372" y="312" width="352" height="172" rx="10" fill="#dfe9f7"/><g transform="translate(548 398)"><g transform="rotate(-8)"><rect x="-27" y="-64" width="54" height="128" rx="17" fill="#3f7fd6"/><rect x="-27" y="-64" width="54" height="26" rx="12" fill="#346dbd"/><rect x="-17" y="-84" width="34" height="24" rx="6" fill="#28323d"/><path d="M-6 -84a10 10 0 0 1 22 0" fill="none" stroke="#28323d" stroke-width="5"/><rect x="-17" y="-30" width="8" height="84" rx="4" fill="#fff" opacity="0.35"/></g></g><rect x="622" y="324" width="88" height="30" rx="15" fill="#e8541c"/><text x="666" y="344" font-size="14" class="b m" fill="#fff">Match</text><text x="380" y="522" font-size="19" class="sb" fill="#231a14">Blue steel bottle</text><text x="380" y="550" font-size="15" fill="#76675c">Library, 2nd floor · Tue 14:20</text><rect x="380" y="570" width="148" height="30" rx="15" fill="#f3ede7"/><text x="454" y="590" font-size="13.5" class="sb m" fill="#5e5047">At security desk</text><rect x="768.5" y="300.5" width="375" height="319" rx="14" fill="#fff" stroke="#ece2d8"/><rect x="780" y="312" width="352" height="172" rx="10" fill="#e7e5ee"/><g transform="translate(956 398)"><g><rect x="-46" y="-70" width="92" height="140" rx="12" fill="#2b2f36"/><rect x="-34" y="-58" width="68" height="30" rx="5" fill="#b8c6a6"/><text x="26" y="-36" font-size="16" class="b e" fill="#3b4432">3.14</text><rect x="-34" y="-16" width="14" height="10" rx="3" fill="#555c66"/><rect x="-16" y="-16" width="14" height="10" rx="3" fill="#555c66"/><rect x="2" y="-16" width="14" height="10" rx="3" fill="#555c66"/><rect x="20" y="-16" width="14" height="10" rx="3" fill="#555c66"/><rect x="-34" y="0" width="14" height="10" rx="3" fill="#555c66"/><rect x="-16" y="0" width="14" height="10" rx="3" fill="#555c66"/><rect x="2" y="0" width="14" height="10" rx="3" fill="#555c66"/><rect x="20" y="0" width="14" height="10" rx="3" fill="#555c66"/><rect x="-34" y="16" width="14" height="10" rx="3" fill="#555c66"/><rect x="-16" y="16" width="14" height="10" rx="3" fill="#555c66"/><rect x="2" y="16" width="14" height="10" rx="3" fill="#555c66"/><rect x="20" y="16" width="14" height="10" rx="3" fill="#555c66"/><rect x="-34" y="32" width="14" height="10" rx="3" fill="#555c66"/><rect x="-16" y="32" width="14" height="10" rx="3" fill="#555c66"/><rect x="2" y="32" width="14" height="10" rx="3" fill="#555c66"/><rect x="20" y="32" width="14" height="10" rx="3" fill="#555c66"/><rect x="-34" y="48" width="14" height="10" rx="3" fill="#555c66"/><rect x="-16" y="48" width="14" height="10" rx="3" fill="#555c66"/><rect x="2" y="48" width="14" height="10" rx="3" fill="#555c66"/><rect x="20" y="48" width="14" height="10" rx="3" fill="#e8541c"/></g></g><text x="788" y="522" font-size="19" class="sb" fill="#231a14">Scientific calculator</text><text x="788" y="550" font-size="15" fill="#76675c">Main block, room 108 · Tue 11:05</text><rect x="788" y="570" width="148" height="30" rx="15" fill="#f3ede7"/><text x="862" y="590" font-size="13.5" class="sb m" fill="#5e5047">At security desk</text><rect x="1176.5" y="300.5" width="375" height="319" rx="14" fill="#fff" stroke="#ece2d8"/><rect x="1188" y="312" width="352" height="172" rx="10" fill="#f7e3df"/><g transform="translate(1364 398)"><g><path d="M-70 -80C-50 -40 -40 -30 -18 -26" fill="none" stroke="#d33a2c" stroke-width="13" stroke-linecap="round"/><circle cx="-4" cy="-14" r="20" fill="none" stroke="#9aa3ad" stroke-width="5"/><g transform="translate(8 2) rotate(35)"><circle cx="0" cy="0" r="14" fill="#c7a03b"/><circle cx="0" cy="0" r="5" fill="#f7e3df"/><rect x="10" y="-4" width="56" height="8" rx="2" fill="#c7a03b"/><path d="M50 4v10h6v-6h5v8h5V4Z" fill="#c7a03b"/></g><g transform="translate(-14 8) rotate(95)"><circle cx="0" cy="0" r="12" fill="#8f98a3"/><circle cx="0" cy="0" r="4" fill="#f7e3df"/><rect x="8" y="-3.5" width="46" height="7" rx="2" fill="#8f98a3"/><path d="M40 3.5v8h5v-5h4v7h5v-10Z" fill="#8f98a3"/></g></g></g><text x="1196" y="522" font-size="19" class="sb" fill="#231a14">Keys on a red lanyard</text><text x="1196" y="550" font-size="15" fill="#76675c">Canteen · Mon 13:40</text><rect x="1196" y="570" width="148" height="30" rx="15" fill="#f3ede7"/><text x="1270" y="590" font-size="13.5" class="sb m" fill="#5e5047">At security desk</text><rect x="360.5" y="652.5" width="375" height="319" rx="14" fill="#fff" stroke="#ece2d8"/><rect x="372" y="664" width="352" height="172" rx="10" fill="#e2eef3"/><g transform="translate(548 750)"><g transform="rotate(-4)"><rect x="-72" y="-47" width="144" height="94" rx="9" fill="#fff" stroke="#d3d9e0"/><path d="M-72 -38a9 9 0 0 1 9-9h126a9 9 0 0 1 9 9v12h-144Z" fill="#2f5fb3"/><rect x="-60" y="-14" width="38" height="46" rx="4" fill="#c9d2dc"/><circle cx="-41" cy="2" r="9" fill="#a9b5c2"/><path d="M-55 30a14 12 0 0 1 28 0Z" fill="#a9b5c2"/><rect x="-12" y="-12" width="66" height="8" rx="4" fill="#c9d2dc"/><rect x="-12" y="4" width="50" height="8" rx="4" fill="#dde3e9"/><rect x="-12" y="20" width="58" height="8" rx="4" fill="#dde3e9"/></g></g><text x="380" y="874" font-size="19" class="sb" fill="#231a14">Student ID card</text><text x="380" y="902" font-size="15" fill="#76675c">Library entrance · Mon 09:15</text><rect x="380" y="922" width="148" height="30" rx="15" fill="#f3ede7"/><text x="454" y="942" font-size="13.5" class="sb m" fill="#5e5047">At security desk</text><rect x="768.5" y="652.5" width="375" height="319" rx="14" fill="#fff" stroke="#ece2d8"/><rect x="780" y="664" width="352" height="172" rx="10" fill="#ece8e1"/><g transform="translate(956 750)"><g transform="rotate(-32)"><path d="M0 -84v150" stroke="#3a3f46" stroke-width="4"/><path d="M0 -74C15 -42 17 18 7 50H-7C-17 18 -15 -42 0 -74Z" fill="#1f2328"/><path d="M-3 -60C-8 -30 -8 20 -3 48" stroke="#3a3f46" stroke-width="2" fill="none"/><rect x="-10" y="4" width="20" height="10" rx="2" fill="#3a3f46"/><path d="M0 66v14a11 11 0 0 1-22 0" fill="none" stroke="#7a4a2a" stroke-width="7" stroke-linecap="round"/></g></g><text x="788" y="874" font-size="19" class="sb" fill="#231a14">Black umbrella</text><text x="788" y="902" font-size="15" fill="#76675c">Main block, stairs · Fri 16:30</text><rect x="788" y="922" width="148" height="30" rx="15" fill="#f3ede7"/><text x="862" y="942" font-size="13.5" class="sb m" fill="#5e5047">At security desk</text><rect x="1176.5" y="652.5" width="375" height="319" rx="14" fill="#fff" stroke="#ece2d8"/><rect x="1188" y="664" width="352" height="172" rx="10" fill="#e6f1e8"/><g transform="translate(1364 750)"><g><ellipse cx="0" cy="44" rx="54" ry="8" fill="#000" opacity="0.08"/><rect x="-48" y="-36" width="96" height="74" rx="32" fill="#fbfbfb" stroke="#d3d7dc"/><path d="M-47 -8H47" stroke="#d3d7dc" stroke-width="2"/><circle cx="0" cy="14" r="3.5" fill="#6fcf93"/></g></g><text x="1196" y="874" font-size="19" class="sb" fill="#231a14">Wireless earbuds case</text><text x="1196" y="902" font-size="15" fill="#76675c">Sports ground · Fri 17:10</text><rect x="1196" y="922" width="148" height="30" rx="15" fill="#f3ede7"/><text x="1270" y="942" font-size="13.5" class="sb m" fill="#5e5047">At security desk</text>
</svg>
